# AST/ASF file generated using VICON BodyLanguage
# -----------------------------------------------
:version 1.10
:name VICON
:units
  mass 1.0
  length 0.45
  angle deg
:documentation
   .ast/.asf automatically generated from VICON data using
   VICON BodyBuilder and BodyLanguage model FoxedUp or BRILLIANT.MOD
:root
   order TX TY TZ RX RY RZ
   axis XYZ
   position 0 0 0  
   orientation 0 0 0 
:bonedata
  begin
     id 1 
     name lhipjoint
     direction 0.710188 -0.616876 0.339259 
     length 2.5669 
     axis 0 0 0  XYZ
  end
  begin
     id 2 
     name lfemur
     direction 0.34202 -0.939693 0  
     length 7.12796  
     axis 0 0 20  XYZ
    dof rx ry rz
    limits (-160.0 20.0)
           (-70.0 70.0)
           (-60.0 70.0)
  end
  begin
     id 3 
     name ltibia
     direction 0.34202 -0.939693 0   
     length 7.58108   
     axis 0 0 20   XYZ
    dof rx
    limits (-10.0 170.0)
  end
  begin
     id 4 
     name lfoot
     direction 0.0669471 -0.183936 0.980656   
     length 2.17365   
     axis -90 7.62852e-016 20   XYZ
    dof rx rz
    limits (-45.0 90.0)
           (-70.0 20.0)
  end
  begin
     id 5 
     name ltoes
     direction 1.53508e-011 -4.21705e-011 1   
     length 1.09427   
     axis -90 7.62852e-016 20   XYZ
    dof rx
    limits (-90.0 20.0)
  end
  begin
     id 6 
     name rhipjoint
     direction -0.700191 -0.625589 0.34405   
     length 2.53115  
     axis 0 0 0  XYZ 
  end
  begin
     id 7 
     name rfemur
     direction -0.34202 -0.939693 0   
     length 7.33006   
     axis 0 0 -20   XYZ
    dof rx ry rz
    limits (-160.0 20.0)
           (-70.0 70.0)
           (-70.0 60.0)
  end
  begin
     id 8 
     name rtibia
     direction -0.34202 -0.939693 0   
     length 7.64926   
     axis 0 0 -20   XYZ
    dof rx
    limits (-10.0 170.0)
 end
 begin
     id 9 
     name rfoot
     direction -0.0688927 -0.189281 0.979503   
     length 2.20493  
     axis -90 -7.62852e-016 -20   XYZ
    dof rx rz
    limits (-45.0 90.0)
           (-20.0 70.0)
  end
  begin
     id 10 
     name rtoes
     direction -1.53567e-011 -4.21933e-011 1   
     length 1.10919   
     axis -90 -7.62852e-016 -20   XYZ
    dof rx
    limits (-90.0 20.0)
  end
  begin
     id 11 
     name lowerback
     direction -0.0167868 0.989873 -0.140959   
     length 2.14596   
     axis 0 0 0   XYZ
    dof rx ry rz
    limits (-20.0 45.0)
           (-30.0 30.0)
           (-30.0 30.0)
  end
  begin
     id 12 
     name upperback
     direction 0.0129109 0.998033 0.0613525   
     length 2.10457   
     axis 0 0 0   XYZ
    dof rx ry rz
    limits (-20.0 45.0)
           (-30.0 30.0)
           (-30.0 30.0)
  end
  begin
     id 13 
     name thorax
     direction 0.0177047 0.991119 0.131797   
     length 2.17652   
     axis 0 0 0   XYZ
    dof rx ry rz
    limits (-20.0 45.0)
           (-30.0 30.0)
           (-30.0 30.0)
  end
  begin
     id 14 
     name lowerneck
     direction -0.0336893 0.997548 0.0613464   
     length 1.8912   
     axis 0 0 0   XYZ
    dof rx ry rz
    limits (-20.0 45.0)
           (-30.0 30.0)
           (-30.0 30.0)
  end
  begin
     id 15 
     name upperneck
     direction 0.0435909 0.997179 -0.0611028   
     length 1.8829   
     axis 0 0 0   XYZ
    dof rx ry rz
    limits (-20.0 45.0)
           (-30.0 30.0)
           (-30.0 30.0)
  end
  begin
     id 16
     name head
     direction 0.0175076 0.999444 -0.0283782  
     length 1.93197  
     axis 0 0 0   XYZ
    dof rx ry rz
    limits (-20.0 45.0)
           (-30.0 30.0)
           (-30.0 30.0)
  end
  begin
     id 17 
     name lclavicle
     direction 0.919164 0.389875 0.0559876  
     length 3.60004  
     axis 0 0 0   XYZ
    dof ry rz
    limits (-20.0 10.0)
           (0.0 20.0)
  end
  begin
     id 18 
     name lhumerus
     direction 1 -4.48958e-011 6.89191e-027   
     length 5.43301   
     axis 180 -30 -90   XYZ
    dof rx ry rz
    limits (-60.0 90.0)
           (-90.0 90.0)
           (-90.0 90.0)
  end
  begin
     id 19
     name lradius
     direction 1 -4.4897e-011 3.24727e-027   
     length 3.15936   
     axis 180 -30 -90   XYZ
    dof rx
    limits (-10.0 170.0)
  end
  begin
     id 20
     name lwrist
     direction 1 -4.4897e-011 9.00228e-027   
     length 1.57968   
     axis -6.29373e-015 90 90   XYZ
    dof ry
    limits (-180.0 0.0)
 end
  begin
     id 21 
     name lhand
     direction 1 -4.48968e-011 1.80042e-026   
     length 0.712827   
     axis -1.14882e-014 90 90   XYZ
    dof rx rz
    limits (-90.0 90.0)
           (-45.0 45.0)
  end
  begin
     id 22 
     name lfingers
     direction 1 -4.49019e-011 3.60267e-026   
     length 0.574699   
     axis -2.29769e-014 90 90   XYZ
    dof rx
    limits (0.0 90.0)
  end
  begin
     id 23
     name lthumb
     direction 0.707107 -6.3498e-011 0.707107   
     length 0.825157   
     axis -90 45 5.37419e-014   XYZ
    dof rx rz
    limits (-45.0 45.0)
           (-45.0 45.0)
  end
  begin
     id 24 
     name rclavicle
     direction -0.890334 0.455305 -0.00132111   
     length 3.51494  
     axis 0 0 0   XYZ 
    dof ry rz
    limits (-10.0 20.0)
           (-20.0 0.0)
  end
  begin
     id 25 
     name rhumerus
     direction -1 -4.48967e-011 5.07175e-028  
     length 5.34194   
     axis 180 30 90   XYZ
    dof rx ry rz
    limits (-90.0 60.0)
           (-90.0 90.0)
           (-90.0 90.0)
  end
  begin
     id 26 
     name rradius
     direction -1 -4.48955e-011 3.30467e-027   
     length 3.19351   
     axis 180 30 90   XYZ
    dof rx
    limits (-10.0 170.0)
  end
  begin
     id 27 
     name rwrist
     direction -1 -4.48968e-011 9.00208e-027   
     length 1.59676   
     axis -6.29373e-015 -90 -90   XYZ
    dof ry
    limits (-180.0 0.0)
  end
  begin
     id 28
     name rhand
     direction -1 -4.49e-011 1.80099e-026   
     length 0.743862   
     axis -1.14882e-014 -90 -90   XYZ
    dof rx rz
    limits (-90.0 90.0)
           (-45.0 45.0)
  end
  begin
     id 29
     name rfingers
     direction -1 -4.49009e-011 3.6023e-026   
     length 0.599721   
     axis -2.29769e-014 -90 -90   XYZ
    dof rx
    limits (0.0 90.0)
  end
  begin
     id 30
     name rthumb
     direction -0.707107 -6.35025e-011 0.707107   
     length 0.861083   
     axis -90 -45 -5.37419e-014   XYZ
    dof rx rz
    limits (-45.0 45.0)
           (-45.0 45.0)
  end
:hierarchy
  begin
    root lhipjoint rhipjoint lowerback
    lhipjoint lfemur
    lfemur ltibia
    ltibia lfoot
    lfoot ltoes
    rhipjoint rfemur
    rfemur rtibia
    rtibia rfoot
    rfoot rtoes
    lowerback upperback
    upperback thorax
    thorax lowerneck lclavicle rclavicle
    lowerneck upperneck
    upperneck head
    lclavicle lhumerus
    lhumerus lradius
    lradius lwrist
    lwrist lhand lthumb
    lhand lfingers
    rclavicle rhumerus
    rhumerus rradius
    rradius rwrist
    rwrist rhand rthumb
    rhand rfingers
  end

#!OML:ASF H:\Martial Arts Walks\Project 1\Capture day 1\Session 1\male.ASF
:FULLY-SPECIFIED
:DEGREES
813
root -2.54814 14.3362 11.0937 -14.3651 52.5934 -13.295
lowerback 17.0537 -2.4609 -5.74579
upperback -1.93971 -3.85836 5.42235
thorax -10.9998 -1.24769 10.3812
lowerneck 0.809648 -11.7785 -14.1382
upperneck 4.38382 -16.0553 8.47762
head 2.98955 -8.09273 4.13073
rclavicle 4.2894e-015 -1.39149e-014
rhumerus -8.1752 -2.74742 -68.9031
rradius 105.927
rwrist 25.8084
rhand -46.7619 -33.9485
rfingers 7.12502
rthumb -19.4784 -62.9929
lclavicle 4.2894e-015 -1.39149e-014
lhumerus -50.1521 -44.2394 116.883
lradius 106.948
lwrist 85.1366
lhand 15.4575 46.2981
lfingers 7.12502
lthumb 40.2822 71.4384
rfemur -39.006 -19.6886 4.11411
rtibia 38.302
rfoot 28.8277 1.06075
rtoes 11.7438
lfemur -31.8829 15.1776 -12.9949
ltibia 78.7088
lfoot -32.9977 17.2179
ltoes -5.36988
814
root -2.54773 14.2798 11.272 -15.2772 53.4432 -13.9846
lowerback 17.0844 -2.54989 -5.97157
upperback -1.86191 -4.01105 5.55359
thorax -10.8724 -1.312 10.6992
lowerneck 1.12738 -11.9568 -14.161
upperneck 4.62208 -16.3568 8.62606
head 3.05869 -8.25019 4.16556
rclavicle -3.15105e-014 6.95746e-015
rhumerus -7.83555 -5.8529 -68.7891
rradius 102.186
rwrist 22.2041
rhand -46.5204 -31.6424
rfingers 7.12502
rthumb -19.2462 -60.7101
lclavicle -3.15105e-014 6.95746e-015
lhumerus -51.4978 -42.4628 115.871
lradius 107.744
lwrist 85.9937
lhand 14.7527 46.6407
lfingers 7.12502
lthumb 39.6189 71.9806
rfemur -38.1749 -20.372 4.17308
rtibia 39.0133
rfoot 27.2016 1.45726
rtoes 9.51844
lfemur -31.6185 15.3647 -12.0412
ltibia 79.4107
lfoot -33.5599 17.2392
ltoes -5.64387
815
root -2.54465 14.2177 11.4362 -16.029 53.9897 -14.4479
lowerback 17.1733 -2.52905 -6.12332
upperback -1.78924 -4.01253 5.60176
thorax -10.8278 -1.30624 10.8486
lowerneck 1.39108 -12.1812 -14.1881
upperneck 5.04119 -16.7261 8.83104
head 3.20463 -8.44037 4.20212
rclavicle 7.67526e-014 1.83876e-014
rhumerus -7.23219 -8.2976 -68.5136
rradius 98.7011
rwrist 18.4959
rhand -46.2042 -29.7744
rfingers 7.12502
rthumb -18.9421 -58.872
lclavicle 7.67526e-014 1.83876e-014
lhumerus -52.6955 -41.5623 115.521
lradius 107.975
lwrist 84.7615
lhand 14.2643 46.1198
lfingers 7.12502
lthumb 39.1587 71.5942
rfemur -37.6259 -21.1507 4.42382
rtibia 39.9729
rfoot 25.0312 1.94534
rtoes 7.17624
lfemur -31.2797 15.6192 -11.2077
ltibia 80.1234
lfoot -34.1117 17.4208
ltoes -5.88364
816
root -2.53917 14.1521 11.5865 -16.5509 54.2584 -14.6466
lowerback 17.2937 -2.39942 -6.18794
upperback -1.72409 -3.86024 5.5685
thorax -10.8561 -1.23015 10.8195
lowerneck 1.60275 -12.4411 -14.2297
upperneck 5.51552 -17.145 9.0861
head 3.38802 -8.65253 4.24489
rclavicle 9.39879e-015 -1.49089e-014
rhumerus -6.53169 -10.2002 -68.0477
rradius 95.6152
rwrist 15.3877
rhand -45.8409 -28.9133
rfingers 7.12502
rthumb -18.5926 -58.0447
lclavicle 9.39879e-015 -1.49089e-014
lhumerus -53.7139 -41.3765 115.742
lradius 107.807
lwrist 82.2223
lhand 14.0898 44.9828
lfingers 7.12502
lthumb 38.9942 70.5045
rfemur -37.3669 -22.0022 4.81855
rtibia 41.116
rfoot 22.5173 2.3819
rtoes 5.09449
lfemur -30.8946 15.9909 -10.5344
ltibia 80.8296
lfoot -34.6503 17.768
ltoes -6.00546
817
root -2.53175 14.0857 11.7235 -16.796 54.2903 -14.5763
lowerback 17.4117 -2.17701 -6.16768
upperback -1.67235 -3.57362 5.46504
thorax -10.9381 -1.09392 10.6267
lowerneck 1.79047 -12.7156 -14.2794
upperneck 5.89477 -17.5812 9.37723
head 3.55397 -8.8704 4.29795
rclavicle 5.63741e-015 -1.89839e-014
rhumerus -5.86009 -11.6544 -67.3919
rradius 93.0152
rwrist 13.2618
rhand -45.4754 -28.9704
rfingers 7.12502
rthumb -18.2411 -58.1351
lclavicle 5.63741e-015 -1.89839e-014
lhumerus -54.5409 -41.6673 116.364
lradius 107.407
lwrist 79.2127
lhand 14.2211 43.4533
lfingers 7.12502
lthumb 39.118 68.9394
rfemur -37.3939 -22.8836 5.30873
rtibia 42.371
rfoot 19.8838 2.68775
rtoes 3.52811
lfemur -30.5077 16.5097 -10.0427
ltibia 81.5119
lfoot -35.1724 18.2557
ltoes -5.96375
818
root -2.52288 14.021 11.8487 -16.7519 54.1338 -14.2698
lowerback 17.4962 -1.89029 -6.07575
upperback -1.64178 -3.1906 5.30911
thorax -11.051 -0.916219 10.3038
lowerneck 1.98349 -12.9785 -14.3236
upperneck 6.05972 -17.9951 9.68939
head 3.65457 -9.0751 4.36459
rclavicle -1.62988e-014 -2.9122e-014
rhumerus -5.28717 -12.7277 -66.5848
rradius 90.9273
rwrist 12.2048
rhand -45.1377 -29.5122
rfingers 7.12502
rthumb -17.9161 -58.7069
lclavicle -1.62988e-014 -2.9122e-014
lhumerus -55.17 -42.1688 117.185
lradius 106.931
lwrist 76.4219
lhand 14.5877 41.7625
lfingers 7.12502
lthumb 39.4634 67.1482
rfemur -37.692 -23.7481 5.85474
rtibia 43.6696
rfoot 17.3327 2.86208
rtoes 2.54236
lfemur -30.1685 17.1825 -9.73088
ltibia 82.1536
lfoot -35.6731 18.8384
ltoes -5.76198
819
root -2.51304 13.961 11.9635 -16.4418 53.8396 -13.7868
lowerback 17.5256 -1.57523 -5.9329
upperback -1.63975 -2.76086 5.12079
thorax -11.1744 -0.720411 9.8969
lowerneck 2.19833 -13.2042 -14.3486
upperneck 5.95727 -18.3475 10.007
head 3.66348 -9.24881 4.44563
rclavicle 5.73851e-014 -3.91109e-014
rhumerus -4.8288 -13.4708 -65.6978
rradius 89.3153
rwrist 12.0972
rhand -44.8649 -30.1023
rfingers 7.12502
rthumb -17.6536 -59.3209
lclavicle 5.73851e-014 -3.91109e-014
lhumerus -55.5944 -42.6377 118.011
lradius 106.497
lwrist 74.2496
lhand 15.1013 40.154
lfingers 7.12502
lthumb 39.947 65.396
rfemur -38.2359 -24.5597 6.42628
rtibia 44.9583
rfoot 15.0108 2.96991
rtoes 2.03024
lfemur -29.9171 17.9932 -9.57707
ltibia 82.7399
lfoot -36.1471 19.4607
ltoes -5.4405
820
root -2.5026 13.9075 12.0695 -15.9195 53.4561 -13.2023
lowerback 17.4929 -1.2687 -5.75758
upperback -1.67091 -2.33544 4.91918
thorax -11.2948 -0.529856 9.45241
lowerneck 2.4327 -13.3736 -14.346
upperneck 5.60736 -18.6096 10.3133
head 3.5809 -9.37848 4.53787
rclavicle -2.9007e-014 9.61621e-015
rhumerus -4.46113 -13.9265 -64.8184
rradius 88.0936
rwrist 12.7127
rhand -44.6982 -30.5163
rfingers 7.12502
rthumb -17.4932 -59.7492
lclavicle -2.9007e-014 9.61621e-015
lhumerus -55.8089 -42.8922 118.689
lradius 106.169
lwrist 72.8167
lhand 15.6608 38.8915
lfingers 7.12502
lthumb 40.4733 63.973
rfemur -38.9933 -25.3031 7.00334
rtibia 46.2082
rfoot 13.003 3.09985
rtoes 1.81692
lfemur -29.7753 18.9061 -9.54208
ltibia 83.2605
lfoot -36.5865 20.0693
ltoes -5.06995
